HIERARCHY
ROOT Hips
{
	OFFSET 0.000000 0.000000 0.000000
	CHANNELS 6 Xposition Yposition Zposition Xrotation Yrotation Zrotation
	JOINT Spine
	{
		OFFSET 0.000000 0.049001 0.073502
		CHANNELS 3 Xrotation Yrotation Zrotation
		JOINT Spine1
		{
			OFFSET 0.000000 0.017018 0.096514
			CHANNELS 3 Xrotation Yrotation Zrotation
			JOINT Spine2
			{
				OFFSET 0.000000 0.008542 0.097630
				CHANNELS 3 Xrotation Yrotation Zrotation
				JOINT Spine3
				{
					OFFSET 0.000000 0.000000 0.098003
					CHANNELS 3 Xrotation Yrotation Zrotation
					JOINT Neck
					{
						OFFSET 0.000000 -0.036751 0.257258
						CHANNELS 3 Xrotation Yrotation Zrotation
						JOINT Head
						{
							OFFSET 0.000000 -0.023400 0.132707
							CHANNELS 3 Xrotation Yrotation Zrotation
							End Site
							{
								OFFSET 0.000000 0.000000 0.000000
							}
						}
					}
					JOINT RightShoulder
					{
						OFFSET -0.030410 -0.050683 0.164214
						CHANNELS 3 Xrotation Yrotation Zrotation
						JOINT RightArm
						{
							OFFSET -0.151036 0.000000 0.000000
							CHANNELS 3 Xrotation Yrotation Zrotation
							JOINT RightForeArm
							{
								OFFSET -0.279942 0.000000 0.000000
								CHANNELS 3 Xrotation Yrotation Zrotation
								JOINT RightHand
								{
									OFFSET -0.265034 0.000000 0.000000
									CHANNELS 3 Xrotation Yrotation Zrotation
									JOINT RightHandEnd
									{
										OFFSET -0.071866 0.000000 0.000000
										CHANNELS 3 Xrotation Yrotation Zrotation
										End Site
										{
											OFFSET 0.000000 0.000000 0.000000
										}
									}
									JOINT RightHandThumb1
									{
										OFFSET -0.028746 -0.047911 -0.019164
										CHANNELS 3 Xrotation Yrotation Zrotation
										End Site
										{
											OFFSET 0.000000 0.000000 0.000000
										}
									}
								}
							}
						}
					}
					JOINT LeftShoulder
					{
						OFFSET 0.030410 -0.050683 0.164214
						CHANNELS 3 Xrotation Yrotation Zrotation
						JOINT LeftArm
						{
							OFFSET 0.151036 0.000000 0.000000
							CHANNELS 3 Xrotation Yrotation Zrotation
							JOINT LeftForeArm
							{
								OFFSET 0.279942 0.000000 0.000000
								CHANNELS 3 Xrotation Yrotation Zrotation
								JOINT LeftHand
								{
									OFFSET 0.265034 0.000000 0.000000
									CHANNELS 3 Xrotation Yrotation Zrotation
									JOINT LeftHandEnd
									{
										OFFSET 0.071866 0.000000 0.000000
										CHANNELS 3 Xrotation Yrotation Zrotation
										End Site
										{
											OFFSET 0.000000 0.000000 0.000000
										}
									}
									JOINT LeftHandThumb1
									{
										OFFSET 0.028746 -0.047911 -0.019164
										CHANNELS 3 Xrotation Yrotation Zrotation
										End Site
										{
											OFFSET 0.000000 0.000000 0.000000
										}
									}
								}
							}
						}
					}
				}
			}
		}
	}
	JOINT RightUpLeg
	{
		OFFSET -0.090216 0.000000 -0.026355
		CHANNELS 3 Xrotation Yrotation Zrotation
		JOINT RightLeg
		{
			OFFSET 0.000000 0.000000 -0.402871
			CHANNELS 3 Xrotation Yrotation Zrotation
			JOINT RightFoot
			{
				OFFSET 0.000000 0.000000 -0.414145
				CHANNELS 3 Xrotation Yrotation Zrotation
				JOINT RightToeBase
				{
					OFFSET 0.000000 -0.146359 -0.053270
					CHANNELS 3 Xrotation Yrotation Zrotation
					End Site
					{
						OFFSET 0.000000 0.000000 0.000000
					}
				}
			}
		}
	}
	JOINT LeftUpLeg
	{
		OFFSET 0.090216 0.000000 -0.026355
		CHANNELS 3 Xrotation Yrotation Zrotation
		JOINT LeftLeg
		{
			OFFSET 0.000000 0.000000 -0.402871
			CHANNELS 3 Xrotation Yrotation Zrotation
			JOINT LeftFoot
			{
				OFFSET 0.000000 0.000000 -0.414145
				CHANNELS 3 Xrotation Yrotation Zrotation
				JOINT LeftToeBase
				{
					OFFSET 0.000000 -0.146359 -0.053270
					CHANNELS 3 Xrotation Yrotation Zrotation
					End Site
					{
						OFFSET 0.000000 0.000000 0.000000
					}
				}
			}
		}
	}
}
MOTION
Frames: 9
Frame Time: 0.033333
-0.590995 -0.402783 0.896186 6.634200 -2.945200 91.196900 2.169600 2.820200 -0.547700 -0.305800 0.391400 -0.001300 7.327500 2.362100 -0.673000 3.258800 0.975500 -1.738000 8.429500 2.374500 4.485800 0.345600 1.926000 7.866400 10.910700 -2.424200 9.010300 20.614400 -50.044700 32.617500 0.000000 0.000100 83.755000 -26.940100 29.011000 0.257500 0.000000 0.000000 0.000000 0.000000 0.000000 0.000000 10.235200 5.855900 -6.388600 7.857600 42.399000 -25.891100 0.000000 -0.000100 -79.841100 -13.272300 -35.664200 -5.422200 0.000000 0.000000 0.000000 0.000000 0.000000 0.000000 -11.919800 4.992700 -10.380500 36.738800 0.000000 0.000000 -16.048800 4.031800 -19.649000 -5.005600 0.000000 0.000000 -15.704700 6.020000 26.212800 17.935900 0.000000 0.000000 7.530400 -2.887100 2.018200 -8.638500 0.000000 0.000000 
-0.594507 -0.403068 0.897636 6.216300 -2.886000 90.932500 2.043100 2.724200 -0.518400 -0.401700 0.412100 0.009400 7.552700 2.308200 -0.558600 3.272700 0.841000 -1.593700 8.333800 2.806300 4.753100 -0.360100 2.997400 8.116200 10.698200 -3.124900 8.875000 14.816700 -48.519900 26.784200 0.000000 0.000100 83.020800 -26.447100 27.860800 -0.114700 0.000000 0.000000 0.000000 0.000000 0.000000 0.000000 10.740300 5.820300 -5.889000 12.719600 44.340700 -29.968800 0.000000 -0.000100 -80.852900 -13.696400 -35.885900 -6.089000 0.000000 0.000000 0.000000 0.000000 0.000000 0.000000 -10.464700 4.509300 -10.989000 33.666600 0.000000 0.000000 -16.182100 4.493700 -18.288900 -3.673100 0.000000 0.000000 -15.076900 5.925300 26.882100 16.005500 0.000000 0.000000 8.170700 -3.048300 1.438800 -8.517500 0.000000 0.000000 
-0.601759 -0.405056 0.899292 5.313700 -2.674700 90.896700 2.091300 2.282100 -0.490300 -0.395500 0.392000 0.011700 7.703900 2.074700 -0.530600 3.230900 0.646300 -1.376900 7.791800 3.134000 4.841900 -1.406100 4.159200 8.209900 10.559500 -3.596600 8.819600 8.538000 -47.514200 21.018800 0.000000 0.000100 82.402500 -27.124200 25.875600 -0.337600 0.000000 0.000000 0.000000 0.000000 0.000000 0.000000 11.532500 5.436400 -5.509500 17.762500 46.294200 -34.812500 0.000000 -0.000100 -82.028700 -13.720500 -35.492200 -6.328200 0.000000 0.000000 0.000000 0.000000 0.000000 0.000000 -9.222900 3.571000 -13.106500 30.128900 0.000000 0.000000 -15.387300 5.424400 -16.368100 -1.833100 0.000000 0.000000 -15.165100 5.004600 27.825500 14.762300 0.000000 0.000000 9.490800 -3.036100 0.464100 -8.240700 0.000000 0.000000 
-0.613004 -0.408597 0.900974 3.826300 -2.346000 91.172100 2.413500 1.432600 -0.438700 -0.208700 0.236900 -0.016000 7.617800 1.622700 -0.643200 3.102500 0.446700 -1.147700 6.930100 3.366600 4.732500 -2.473900 5.174100 8.109500 10.398800 -3.606000 8.752600 1.708100 -47.446800 15.375200 0.000000 0.000100 82.065400 -28.222200 23.242600 -0.644200 0.000000 0.000000 0.000000 0.000000 0.000000 0.000000 12.394100 4.629400 -5.259200 23.088400 47.892500 -40.405400 -0.000100 -0.000100 -83.093700 -13.912800 -34.942600 -6.064900 0.000000 0.000000 0.000000 0.000000 0.000000 0.000000 -8.431700 2.022700 -16.284500 26.612500 0.000000 0.000000 -13.852600 6.153400 -13.999700 -0.383400 0.000000 0.000000 -16.291500 3.275400 27.508800 14.745300 0.000000 0.000000 11.025600 -2.817200 0.299300 -8.020800 0.000000 0.000000 
-0.628193 -0.413255 0.902360 1.988600 -1.836300 92.026600 2.900800 0.330500 -0.357500 0.122100 0.018400 -0.068000 7.330400 0.970200 -1.001000 2.894300 0.257700 -0.944100 5.961200 3.364400 4.392000 -3.443200 6.006800 7.813200 10.052200 -3.315900 8.529400 -5.169200 -47.999000 10.156100 0.000000 0.000100 82.111400 -28.490300 21.244000 -0.758200 0.000000 0.000000 0.000000 0.000000 0.000000 0.000000 13.136300 3.317600 -5.217700 28.309800 48.833900 -46.265700 -0.000100 -0.000100 -83.932900 -14.446600 -34.920000 -5.418300 0.000000 0.000000 0.000000 0.000000 0.000000 0.000000 -8.113800 0.096500 -20.236100 23.148200 0.000000 0.000000 -11.982900 6.353300 -11.271100 0.312700 0.000000 0.000000 -18.949400 1.183200 24.715300 16.451200 0.000000 0.000000 12.548100 -1.382000 1.829800 -9.150300 0.000000 0.000000 
-0.645688 -0.418424 0.902881 0.208600 -1.303500 93.413800 3.438100 -0.757900 -0.230800 0.483800 -0.129800 -0.120000 7.001400 0.246700 -1.540100 2.688800 0.055900 -0.729700 5.103900 2.940400 3.750700 -4.274200 6.674900 7.371800 9.569000 -3.240800 8.185500 -11.231100 -48.285100 5.860800 0.000000 0.000100 82.611700 -27.720600 20.469200 -0.333900 0.000000 0.000000 0.000000 0.000000 0.000000 0.000000 13.631100 1.716300 -5.471400 32.583100 48.994700 -51.259700 -0.000100 -0.000100 -84.795700 -15.062700 -35.621800 -4.711900 0.000000 0.000000 0.000000 0.000000 0.000000 0.000000 -7.944300 -1.923400 -24.486100 19.556500 0.000000 0.000000 -10.100900 6.413100 -8.527200 0.700600 0.000000 0.000000 -23.039500 -0.789500 20.590200 20.337200 0.000000 0.000000 13.479400 2.083000 4.612500 -13.291500 0.000000 0.000000 
-0.663014 -0.423476 0.902198 -1.260900 -0.960200 94.580100 3.932600 -1.603900 -0.031900 0.774200 -0.212200 -0.143600 6.732900 -0.387000 -1.879000 2.574000 -0.193000 -0.414100 4.558900 2.166800 2.892300 -4.704400 7.034600 6.782300 9.181600 -3.686200 8.020400 -15.610700 -47.685800 3.060200 0.000000 0.000100 83.426200 -26.809900 20.217200 0.445100 0.000000 0.000000 0.000000 0.000000 0.000000 0.000000 13.815300 0.359900 -5.887900 35.320800 48.369500 -54.397900 -0.000100 -0.000100 -85.874500 -16.039100 -36.769400 -4.648000 0.000000 0.000000 0.000000 0.000000 0.000000 0.000000 -7.859400 -3.883100 -27.835900 16.244900 0.000000 0.000000 -8.390200 6.757200 -6.359400 1.063500 0.000000 0.000000 -27.583200 -2.604000 17.313100 26.231900 0.000000 0.000000 12.601600 6.839900 7.829100 -20.044400 0.000000 0.000000 
-0.678724 -0.427548 0.900902 -2.293800 -0.825700 94.832700 4.297200 -2.068100 0.178800 0.941800 -0.272000 -0.131400 6.563200 -0.864100 -1.699700 2.559000 -0.492800 0.039400 4.475000 1.369100 2.041600 -4.488400 6.900000 5.980600 9.020500 -4.411200 8.184100 -17.620200 -46.615200 2.240400 0.000000 0.000100 84.180200 -26.304100 19.915600 1.200700 0.000000 0.000000 0.000000 0.000000 0.000000 0.000000 13.718300 -0.414600 -6.157500 36.493100 47.097600 -55.445600 -0.000100 -0.000100 -87.013400 -17.932100 -37.996600 -5.757400 0.000000 0.000000 0.000000 0.000000 0.000000 0.000000 -8.098400 -5.414400 -29.583400 14.021800 0.000000 0.000000 -6.964300 7.309900 -4.905100 1.397500 0.000000 0.000000 -31.489500 -4.340100 15.330700 33.566700 0.000000 0.000000 9.341900 10.647100 11.208900 -25.576200 0.000000 0.000000 
-0.692455 -0.429910 0.899978 -2.843800 -0.931500 94.326300 4.559800 -2.195500 0.314800 1.051300 -0.296000 -0.100000 6.457700 -1.203400 -1.166800 2.591700 -0.777700 0.535200 4.879200 0.758100 1.296500 -3.764400 6.371100 5.029400 8.975900 -4.957400 8.404600 -16.957100 -46.240400 3.540700 0.000000 0.000100 84.555500 -25.692300 19.857800 1.712400 0.000000 0.000000 0.000000 0.000000 0.000000 0.000000 13.465500 -0.827500 -6.075900 36.332300 45.635600 -54.643400 -0.000100 -0.000100 -88.062200 -20.177500 -38.985800 -7.428100 0.000000 0.000000 0.000000 0.000000 0.000000 0.000000 -8.465300 -6.212200 -30.545700 12.946100 0.000000 0.000000 -5.835900 7.661200 -3.512500 1.697300 0.000000 0.000000 -34.112900 -5.703500 13.760400 41.909900 0.000000 0.000000 5.156900 11.983400 14.264200 -27.204400 0.000000 0.000000 
